<?xml version="1.0" standalone="no"?>
<!DOCTYPE svg PUBLIC "-//W3C//DTD SVG 20010904//EN"
 "http://www.w3.org/TR/2001/REC-SVG-20010904/DTD/svg10.dtd">
<svg version="1.0" xmlns="http://www.w3.org/2000/svg"
 width="562.000000pt" height="444.000000pt" viewBox="0 0 562.000000 444.000000"
 preserveAspectRatio="xMidYMid meet">

<g transform="translate(0.000000,444.000000) scale(0.100000,-0.100000)"
fill="#000000" stroke="none">
<path d="M2560 4145 c-867 -119 -1546 -787 -1675 -1650 -24 -161 -22 -435 4
-590 56 -321 176 -604 361 -850 303 -404 732 -668 1235 -760 121 -22 405 -31
531 -16 457 54 836 234 1157 550 179 176 284 321 393 545 220 452 253 971 92
1460 -37 114 -151 348 -215 443 -117 174 -307 378 -449 484 -287 213 -585 336
-932 383 -134 19 -369 19 -502 1z m399 -704 c33 -10 80 -30 104 -45 54 -31
128 -112 156 -169 26 -53 44 -169 39 -252 -2 -45 1 -66 10 -70 14 -5 15 -72 3
-178 -7 -69 -19 -88 -50 -80 -13 3 -20 -6 -30 -39 -7 -24 -35 -96 -63 -161
-49 -116 -50 -118 -43 -192 7 -67 11 -78 35 -95 40 -29 161 -66 301 -94 153
-30 229 -56 296 -102 63 -43 95 -89 121 -174 33 -106 40 -157 48 -317 6 -143
6 -153 -14 -185 -59 -95 -312 -165 -787 -219 -333 -38 -829 10 -1148 112 -105
34 -148 58 -181 102 -19 26 -21 40 -18 150 3 151 16 248 49 355 48 161 140
223 409 277 190 38 258 60 322 103 7 5 16 43 21 86 9 77 8 79 -28 159 -21 45
-50 117 -66 160 -18 51 -32 76 -41 73 -30 -12 -45 19 -54 114 -12 124 -12 126
4 142 9 9 15 52 18 138 3 83 11 138 22 164 44 104 145 195 262 235 79 27 219
28 303 2z"/>
</g>
</svg>
